<svg width="24" height="24" viewBox="0 0 24 24" fill="none" xmlns="http://www.w3.org/2000/svg">
<g clip-path="url(#clip0_441_1117)">
<path d="M24 21H21.3398C21.7148 21.4141 22 21.875 22.1953 22.3828C22.3906 22.8906 22.4922 23.4297 22.5 24H21C21 23.5859 20.9219 23.1992 20.7656 22.8398C20.6094 22.4805 20.3945 22.1602 20.1211 21.8789C19.8477 21.5977 19.5312 21.3828 19.1719 21.2344C18.8125 21.0859 18.4219 21.0078 18 21C17.5859 21 17.1992 21.0781 16.8398 21.2344C16.4805 21.3906 16.1602 21.6055 15.8789 21.8789C15.5977 22.1523 15.3828 22.4688 15.2344 22.8281C15.0859 23.1875 15.0078 23.5781 15 24H13.5C13.5 23.5859 13.4219 23.1992 13.2656 22.8398C13.1094 22.4805 12.8945 22.1602 12.6211 21.8789C12.3477 21.5977 12.0312 21.3828 11.6719 21.2344C11.3125 21.0859 10.9219 21.0078 10.5 21C10.0859 21 9.69922 21.0781 9.33984 21.2344C8.98047 21.3906 8.66016 21.6055 8.37891 21.8789C8.09766 22.1523 7.88281 22.4688 7.73438 22.8281C7.58594 23.1875 7.50781 23.5781 7.5 24H6C6 23.5937 6.05469 23.1953 6.16406 22.8047C6.27344 22.4141 6.42578 22.0508 6.62109 21.7148C6.81641 21.3789 7.0625 21.0664 7.35938 20.7773C7.65625 20.4883 7.98047 20.25 8.33203 20.0625C8.06641 19.7891 7.86328 19.4727 7.72266 19.1133C7.58203 18.7539 7.50781 18.3828 7.5 18C7.5 17.4609 7.63281 16.9648 7.89844 16.5117C8.16406 16.0586 8.53125 15.6953 9 15.4219V12C9 11.7656 9.05078 11.543 9.15234 11.332C9.25391 11.1211 9.40234 10.9453 9.59766 10.8047C9.16797 10.2344 8.64062 9.79297 8.01562 9.48047C7.39063 9.16797 6.71875 9.00781 6 9C5.375 9 4.79297 9.11719 4.25391 9.35156C3.71484 9.58594 3.23828 9.90625 2.82422 10.3125C2.41016 10.7188 2.08594 11.1992 1.85156 11.7539C1.61719 12.3086 1.5 12.8906 1.5 13.5H0C0 12.9297 0.078125 12.3789 0.234375 11.8477C0.390625 11.3164 0.613281 10.8125 0.902344 10.3359C1.19141 9.85937 1.54688 9.4375 1.96875 9.07031C2.39062 8.70312 2.85156 8.38672 3.35156 8.12109C2.76562 7.69922 2.3125 7.17188 1.99219 6.53906C1.67187 5.90625 1.50781 5.22656 1.5 4.5C1.5 3.88281 1.61719 3.30078 1.85156 2.75391C2.08594 2.20703 2.40625 1.73047 2.8125 1.32422C3.21875 0.917969 3.69531 0.59375 4.24219 0.351562C4.78906 0.109375 5.375 -0.0078125 6 0C6.61719 0 7.19922 0.117188 7.74609 0.351562C8.29297 0.585938 8.76953 0.90625 9.17578 1.3125C9.58203 1.71875 9.90625 2.19922 10.1484 2.75391C10.3906 3.30859 10.5078 3.89062 10.5 4.5C10.5 5.22656 10.3398 5.90625 10.0195 6.53906C9.69922 7.17188 9.24219 7.70312 8.64844 8.13281C9.17969 8.39844 9.66016 8.73047 10.0898 9.12891C10.5195 9.52734 10.8867 9.98438 11.1914 10.5H15.375C15.6172 10.5 15.8281 10.4648 16.0078 10.3945C16.1875 10.3242 16.3555 10.2305 16.5117 10.1133C16.668 9.99609 16.8281 9.875 16.9922 9.75C17.1562 9.625 17.3359 9.50391 17.5312 9.38672C17.7266 9.26953 17.9531 9.17969 18.2109 9.11719C18.4688 9.05469 18.7734 9.01563 19.125 9H22.5C22.7109 9 22.9063 9.03906 23.0859 9.11719C23.2656 9.19531 23.4219 9.30078 23.5547 9.43359C23.6875 9.56641 23.7969 9.72656 23.8828 9.91406C23.9688 10.1016 24.0078 10.2969 24 10.5V21ZM6 7.5C6.41406 7.5 6.80078 7.42187 7.16016 7.26562C7.51953 7.10938 7.83984 6.89453 8.12109 6.62109C8.40234 6.34766 8.61719 6.03125 8.76562 5.67188C8.91406 5.3125 8.99219 4.92188 9 4.5C9 4.08594 8.92187 3.69922 8.76562 3.33984C8.60938 2.98047 8.39453 2.66016 8.12109 2.37891C7.84766 2.09766 7.53125 1.88281 7.17188 1.73438C6.8125 1.58594 6.42188 1.50781 6 1.5C5.58594 1.5 5.19922 1.57813 4.83984 1.73438C4.48047 1.89062 4.16016 2.10547 3.87891 2.37891C3.59766 2.65234 3.38281 2.96875 3.23438 3.32812C3.08594 3.6875 3.00781 4.07812 3 4.5C3 4.91406 3.07813 5.30078 3.23438 5.66016C3.39062 6.01953 3.60547 6.33984 3.87891 6.62109C4.15234 6.90234 4.46875 7.11719 4.82812 7.26562C5.1875 7.41406 5.57812 7.49219 6 7.5ZM10.5 19.5C10.7109 19.5 10.9063 19.4609 11.0859 19.3828C11.2656 19.3047 11.4219 19.1992 11.5547 19.0664C11.6875 18.9336 11.7969 18.7734 11.8828 18.5859C11.9688 18.3984 12.0078 18.2031 12 18C12 17.7891 11.9609 17.5937 11.8828 17.4141C11.8047 17.2344 11.6992 17.0781 11.5664 16.9453C11.4336 16.8125 11.2734 16.7031 11.0859 16.6172C10.8984 16.5312 10.7031 16.4922 10.5 16.5C10.2891 16.5 10.0937 16.5391 9.91406 16.6172C9.73438 16.6953 9.57812 16.8008 9.44531 16.9336C9.3125 17.0664 9.20313 17.2266 9.11719 17.4141C9.03125 17.6016 8.99219 17.7969 9 18C9 18.2109 9.03906 18.4063 9.11719 18.5859C9.19531 18.7656 9.30078 18.9219 9.43359 19.0547C9.56641 19.1875 9.72656 19.2969 9.91406 19.3828C10.1016 19.4688 10.2969 19.5078 10.5 19.5ZM18 19.5C18.2109 19.5 18.4063 19.4609 18.5859 19.3828C18.7656 19.3047 18.9219 19.1992 19.0547 19.0664C19.1875 18.9336 19.2969 18.7734 19.3828 18.5859C19.4688 18.3984 19.5078 18.2031 19.5 18C19.5 17.7891 19.4609 17.5937 19.3828 17.4141C19.3047 17.2344 19.1992 17.0781 19.0664 16.9453C18.9336 16.8125 18.7734 16.7031 18.5859 16.6172C18.3984 16.5312 18.2031 16.4922 18 16.5C17.7891 16.5 17.5937 16.5391 17.4141 16.6172C17.2344 16.6953 17.0781 16.8008 16.9453 16.9336C16.8125 17.0664 16.7031 17.2266 16.6172 17.4141C16.5312 17.6016 16.4922 17.7969 16.5 18C16.5 18.2109 16.5391 18.4063 16.6172 18.5859C16.6953 18.7656 16.8008 18.9219 16.9336 19.0547C17.0664 19.1875 17.2266 19.2969 17.4141 19.3828C17.6016 19.4688 17.7969 19.5078 18 19.5ZM22.5 13.5H19.125C18.7734 13.5 18.4688 13.4648 18.2109 13.3945C17.9531 13.3242 17.7266 13.2305 17.5312 13.1133C17.3359 12.9961 17.1602 12.875 17.0039 12.75C16.8477 12.625 16.6875 12.5039 16.5234 12.3867C16.3594 12.2695 16.1875 12.1797 16.0078 12.1172C15.8281 12.0547 15.6172 12.0156 15.375 12H10.5V15C10.9141 15 11.3008 15.0781 11.6602 15.2344C12.0195 15.3906 12.3398 15.6055 12.6211 15.8789C12.9023 16.1523 13.1172 16.4688 13.2656 16.8281C13.4141 17.1875 13.4922 17.5781 13.5 18C13.5 18.3828 13.4297 18.7539 13.2891 19.1133C13.1484 19.4727 12.9414 19.7891 12.668 20.0625C13.3164 20.4219 13.8437 20.9062 14.25 21.5156C14.6563 20.9062 15.1836 20.4219 15.832 20.0625C15.5664 19.7891 15.3633 19.4727 15.2227 19.1133C15.082 18.7539 15.0078 18.3828 15 18C15 17.5859 15.0781 17.1992 15.2344 16.8398C15.3906 16.4805 15.6055 16.1602 15.8789 15.8789C16.1523 15.5977 16.4688 15.3828 16.8281 15.2344C17.1875 15.0859 17.5781 15.0078 18 15C18.4141 15 18.8008 15.0781 19.1602 15.2344C19.5195 15.3906 19.8398 15.6055 20.1211 15.8789C20.4023 16.1523 20.6172 16.4688 20.7656 16.8281C20.9141 17.1875 20.9922 17.5781 21 18C21 18.2656 20.9648 18.5234 20.8945 18.7734C20.8242 19.0234 20.7188 19.2656 20.5781 19.5H22.5V13.5ZM22.5 10.5H19.125C18.9453 10.5 18.7852 10.5195 18.6445 10.5586C18.5039 10.5977 18.3711 10.6484 18.2461 10.7109C18.1211 10.7734 18 10.8516 17.8828 10.9453C17.7656 11.0391 17.6406 11.1406 17.5078 11.25C17.6328 11.3594 17.7539 11.457 17.8711 11.543C17.9883 11.6289 18.1133 11.707 18.2461 11.7773C18.3789 11.8477 18.5117 11.9023 18.6445 11.9414C18.7773 11.9805 18.9375 12 19.125 12H22.5V10.5Z" fill="white"/>
</g>
<defs>
<clipPath id="clip0_441_1117">
<rect width="24" height="24" fill="white"/>
</clipPath>
</defs>
</svg>
