<svg width="24" height="24" viewBox="0 0 24 24" fill="none" xmlns="http://www.w3.org/2000/svg">
<path d="M8.25014 17.385L6.75014 15.8843L5.69189 16.9418L8.25014 19.5L12.7501 15L11.6926 13.9425L8.25014 17.385ZM21.0001 22.5H18.0001V21H21.0001V12H18.0001V6C17.9992 5.20466 17.6828 4.44217 17.1204 3.87978C16.558 3.31738 15.7955 3.00099 15.0001 3V1.5C16.1932 1.50139 17.337 1.97594 18.1806 2.81955C19.0242 3.66317 19.4988 4.80695 19.5001 6V10.5H21.0001C21.3978 10.5004 21.7791 10.6586 22.0604 10.9398C22.3416 11.221 22.4997 11.6023 22.5001 12V21C22.4997 21.3977 22.3416 21.779 22.0604 22.0602C21.7791 22.3414 21.3978 22.4996 21.0001 22.5Z" fill="white"/>
<path d="M15 10.5H13.5V6C13.5 4.80653 13.0259 3.66193 12.182 2.81802C11.3381 1.97411 10.1935 1.5 9 1.5C7.80653 1.5 6.66193 1.97411 5.81802 2.81802C4.97411 3.66193 4.5 4.80653 4.5 6V10.5H3C2.60218 10.5 2.22064 10.658 1.93934 10.9393C1.65804 11.2206 1.5 11.6022 1.5 12V21C1.5 21.3978 1.65804 21.7794 1.93934 22.0607C2.22064 22.342 2.60218 22.5 3 22.5H15C15.3978 22.5 15.7794 22.342 16.0607 22.0607C16.342 21.7794 16.5 21.3978 16.5 21V12C16.5 11.6022 16.342 11.2206 16.0607 10.9393C15.7794 10.658 15.3978 10.5 15 10.5ZM6 6C6 5.20435 6.31607 4.44129 6.87868 3.87868C7.44129 3.31607 8.20435 3 9 3C9.79565 3 10.5587 3.31607 11.1213 3.87868C11.6839 4.44129 12 5.20435 12 6V10.5H6V6ZM15 21H3V12H15V21Z" fill="white"/>
</svg>
