<svg width="24" height="24" viewBox="0 0 24 24" fill="none" xmlns="http://www.w3.org/2000/svg">
<g clip-path="url(#clip0_441_1126)">
<path d="M13.4998 7.49999C13.4998 7.30108 13.5789 7.11031 13.7195 6.96966C13.8602 6.82901 14.0509 6.74999 14.2498 6.74999H23.2498C23.4488 6.74999 23.6395 6.82901 23.7802 6.96966C23.9208 7.11031 23.9998 7.30108 23.9998 7.49999C23.9998 7.6989 23.9208 7.88967 23.7802 8.03032C23.6395 8.17097 23.4488 8.24999 23.2498 8.24999H14.2498C14.0509 8.24999 13.8602 8.17097 13.7195 8.03032C13.5789 7.88967 13.4998 7.6989 13.4998 7.49999ZM23.2498 11.25H14.2498C14.0509 11.25 13.8602 11.329 13.7195 11.4697C13.5789 11.6103 13.4998 11.8011 13.4998 12C13.4998 12.1989 13.5789 12.3897 13.7195 12.5303C13.8602 12.671 14.0509 12.75 14.2498 12.75H23.2498C23.4488 12.75 23.6395 12.671 23.7802 12.5303C23.9208 12.3897 23.9998 12.1989 23.9998 12C23.9998 11.8011 23.9208 11.6103 23.7802 11.4697C23.6395 11.329 23.4488 11.25 23.2498 11.25ZM23.2498 15.75H16.4998C16.3009 15.75 16.1102 15.829 15.9695 15.9697C15.8289 16.1103 15.7498 16.3011 15.7498 16.5C15.7498 16.6989 15.8289 16.8897 15.9695 17.0303C16.1102 17.171 16.3009 17.25 16.4998 17.25H23.2498C23.4488 17.25 23.6395 17.171 23.7802 17.0303C23.9208 16.8897 23.9998 16.6989 23.9998 16.5C23.9998 16.3011 23.9208 16.1103 23.7802 15.9697C23.6395 15.829 23.4488 15.75 23.2498 15.75ZM14.2264 17.8125C14.2509 17.9079 14.2564 18.0072 14.2425 18.1047C14.2287 18.2023 14.1957 18.2961 14.1456 18.3809C14.0954 18.4657 14.0291 18.5398 13.9503 18.5989C13.8715 18.6581 13.7818 18.7011 13.6864 18.7256C13.6253 18.7421 13.5622 18.7503 13.4989 18.75C13.3326 18.7501 13.1709 18.6949 13.0394 18.593C12.9079 18.4912 12.8139 18.3485 12.7723 18.1875C12.1948 15.9431 9.92797 14.25 7.4989 14.25C5.06984 14.25 2.80297 15.9422 2.22547 18.1875C2.17574 18.3802 2.0515 18.5452 1.88008 18.6463C1.70866 18.7474 1.5041 18.7763 1.3114 18.7266C1.11871 18.6768 0.953657 18.5526 0.852564 18.3812C0.75147 18.2097 0.722613 18.0052 0.772341 17.8125C1.2964 15.7772 2.81984 14.1291 4.75297 13.3125C4.00862 12.7392 3.46239 11.9473 3.19089 11.0478C2.91938 10.1483 2.93622 9.18645 3.23904 8.29704C3.54186 7.40763 4.11547 6.63532 4.87942 6.0884C5.64338 5.54149 6.55936 5.24741 7.4989 5.24741C8.43845 5.24741 9.35443 5.54149 10.1184 6.0884C10.8823 6.63532 11.4559 7.40763 11.7588 8.29704C12.0616 9.18645 12.0784 10.1483 11.8069 11.0478C11.5354 11.9473 10.9892 12.7392 10.2448 13.3125C12.1789 14.1291 13.7023 15.7772 14.2264 17.8125ZM7.49984 12.75C8.09319 12.75 8.6732 12.574 9.16655 12.2444C9.6599 11.9148 10.0444 11.4462 10.2715 10.898C10.4985 10.3499 10.558 9.74666 10.4422 9.16472C10.3264 8.58278 10.0407 8.04823 9.62116 7.62867C9.2016 7.20911 8.66706 6.92339 8.08511 6.80763C7.50317 6.69188 6.89997 6.75129 6.35179 6.97835C5.80361 7.20541 5.33508 7.58993 5.00543 8.08328C4.67579 8.57663 4.49984 9.15665 4.49984 9.74999C4.49984 10.5456 4.81591 11.3087 5.37852 11.8713C5.94113 12.4339 6.70419 12.75 7.49984 12.75Z" fill="white"/>
</g>
<defs>
<clipPath id="clip0_441_1126">
<rect width="24" height="24" fill="white"/>
</clipPath>
</defs>
</svg>
